<?xml version="1.0" standalone="no"?>
<!DOCTYPE svg PUBLIC "-//W3C//DTD SVG 20010904//EN"
 "http://www.w3.org/TR/2001/REC-SVG-20010904/DTD/svg10.dtd">
<svg version="1.0" xmlns="http://www.w3.org/2000/svg"
 width="750.000000pt" height="210.000000pt" viewBox="0 0 750.000000 210.000000"
 preserveAspectRatio="xMidYMid meet">
<metadata>
Created by potrace 1.16, written by Peter Selinger 2001-2019
</metadata>
<g transform="translate(0.000000,210.000000) scale(0.100000,-0.100000)"
fill="#000000" stroke="none">
<path d="M633 1367 c-100 -171 -183 -317 -185 -323 -2 -6 80 -154 182 -328
l184 -316 372 0 372 0 187 319 186 320 -187 320 -187 321 -371 0 -371 0 -182
-313z m738 12 c89 -30 139 -102 139 -199 0 -98 -55 -177 -138 -200 -20 -5 -81
-10 -134 -10 l-98 0 0 -125 0 -125 -65 0 -65 0 0 335 0 335 164 0 c95 0 177
-5 197 -11z"/>
<path d="M1140 1181 l0 -101 85 0 c89 0 137 15 149 45 14 38 6 94 -18 122 -23
26 -29 28 -120 31 l-96 4 0 -101z"/>
<path d="M5760 1060 l0 -320 40 0 c37 0 40 2 40 27 0 24 1 25 18 10 10 -9 34
-23 55 -32 115 -48 245 22 283 153 34 117 -25 256 -125 294 -63 24 -166 5
-200 -36 -8 -9 -17 -16 -22 -16 -5 0 -9 54 -9 120 l0 120 -40 0 -40 0 0 -320z
m298 43 c59 -44 80 -143 44 -212 -48 -95 -164 -110 -234 -31 -25 27 -28 38
-28 98 0 55 4 74 24 103 46 68 134 87 194 42z"/>
<path d="M6887 1374 c-8 -8 -9 -521 -1 -561 13 -64 60 -90 139 -79 41 7 45 10
45 34 0 39 -10 47 -55 47 l-40 0 -3 283 -2 282 -38 0 c-21 0 -41 -3 -45 -6z"/>
<path d="M5427 1199 c-185 -30 -253 -278 -112 -408 91 -84 226 -82 312 4 24
23 43 47 43 53 0 5 -15 15 -32 21 -31 11 -35 10 -58 -18 -63 -75 -178 -65
-230 21 -20 33 -27 69 -12 67 4 -1 87 -1 186 0 l179 1 -7 51 c-19 144 -131
231 -269 208z m121 -88 c26 -14 62 -68 62 -93 0 -16 -13 -18 -140 -18 -153 0
-156 1 -126 59 37 71 126 94 204 52z"/>
<path d="M6557 1195 c-125 -32 -198 -180 -153 -308 45 -126 193 -192 311 -138
38 17 105 81 105 101 0 4 -16 14 -36 20 -34 11 -38 11 -58 -13 -88 -105 -246
-35 -246 110 0 61 17 102 56 132 55 43 144 35 184 -16 19 -25 22 -25 60 -14
46 14 45 25 -11 79 -51 49 -133 68 -212 47z"/>
<path d="M4640 973 l99 -228 36 0 c37 0 37 0 73 87 21 48 40 88 43 88 3 0 23
-41 44 -91 l37 -90 36 3 36 3 88 200 c122 282 116 255 63 255 -37 0 -45 -4
-51 -22 -8 -27 -121 -294 -133 -315 -6 -11 -17 8 -40 64 l-31 78 35 87 c19 48
35 92 35 98 0 5 -16 10 -36 10 -31 0 -37 -4 -50 -37 -33 -84 -29 -83 -57 -20
-25 54 -28 57 -61 57 -20 0 -36 -4 -36 -9 0 -5 16 -46 35 -91 19 -45 35 -88
35 -95 0 -14 -49 -134 -60 -148 -3 -4 -39 72 -80 168 l-73 175 -43 0 -42 0 98
-227z"/>
</g>
</svg>
